<svg width="212" height="100" viewBox="0 0 212 100" fill="none" xmlns="http://www.w3.org/2000/svg">
<rect width="212" height="100" fill="#B00F1F"/>
<path d="M32.592 30.328H33.72L27.816 36.256L34.92 46H33.72L27.144 36.904L22.224 41.896V46H21.288V30.328H22.224V40.84L32.592 30.328ZM51.2004 30.328H52.1364V40.432C52.1364 44.2 49.2324 46.312 45.3444 46.312C41.5044 46.312 38.6004 44.2 38.6004 40.432V30.328H39.5364V40.432C39.5364 43.672 42.0324 45.472 45.3444 45.472C48.7044 45.472 51.2004 43.672 51.2004 40.432V30.328ZM68.7821 30.328H69.8861L63.4541 38.416V46H62.5181V38.416L56.0861 30.328H57.2621L63.0221 37.576L68.7821 30.328ZM85.5139 30.328H86.6419L80.7379 36.256L87.8419 46H86.6419L80.0659 36.904L75.1459 41.896V46H74.2099V30.328H75.1459V40.84L85.5139 30.328ZM99.7543 37.24V38.056H92.7943V45.184H104.722V46H91.8583V30.328H104.218V31.144H92.7943V37.24H99.7543ZM121.827 30.328H122.763V46H121.803L110.115 31.792H110.091V46H109.155V30.328H110.139L121.803 44.536H121.827V30.328ZM135.263 46H129.335V30.328H135.263C138.335 30.328 140.039 31.216 141.623 32.68C143.039 34.072 143.879 36.016 143.879 38.152C143.879 40.312 142.991 42.28 141.575 43.696C139.967 45.112 138.359 46 135.263 46ZM130.271 45.184H135.239C138.023 45.184 139.415 44.392 140.831 43.12C142.103 41.848 142.895 40.072 142.895 38.152C142.895 36.232 142.151 34.504 140.855 33.232C139.439 31.96 137.999 31.144 135.239 31.144H130.271V45.184ZM147.73 46H146.77L154.042 30.328H155.074L162.346 46H161.338L158.746 40.384H150.322L147.73 46ZM154.474 31.36L150.658 39.616H158.41L154.618 31.36H154.474ZM166.835 30.328H167.771V45.184H178.139V46H166.835V30.328ZM181.976 30.328H182.912V45.184H193.28V46H181.976V30.328Z" fill="white"/>
<path d="M31.16 68H30.2L37.472 52.328H38.504L45.776 68H44.768L42.176 62.384H33.752L31.16 68ZM37.904 53.36L34.088 61.616H41.84L38.048 53.36H37.904ZM62.0966 54.296L61.5206 54.944C60.4886 54.008 58.4006 52.832 55.4966 52.832C53.1926 52.832 50.3606 53.72 50.3606 56.312C50.3606 58.88 53.4566 59.024 56.2886 59.168C58.9766 59.312 63.3446 59.552 63.3446 63.392C63.3446 66.8 59.9846 68.312 56.1686 68.312C52.4246 68.312 50.1446 66.704 48.5606 65.192L49.1606 64.544C50.5766 65.936 52.7126 67.496 56.1926 67.496C59.5046 67.496 62.4086 66.248 62.4086 63.488C62.4086 60.464 58.8806 60.2 56.2886 60.056C53.0726 59.888 49.4246 59.672 49.4246 56.384C49.4246 53.096 52.8566 52.016 55.5206 52.016C58.5926 52.016 60.9686 53.312 62.0966 54.296ZM80.0731 54.296L79.4971 54.944C78.4651 54.008 76.3771 52.832 73.4731 52.832C71.1691 52.832 68.3371 53.72 68.3371 56.312C68.3371 58.88 71.4331 59.024 74.2651 59.168C76.9531 59.312 81.3211 59.552 81.3211 63.392C81.3211 66.8 77.9611 68.312 74.1451 68.312C70.4011 68.312 68.1211 66.704 66.5371 65.192L67.1371 64.544C68.5531 65.936 70.6891 67.496 74.1691 67.496C77.4811 67.496 80.3851 66.248 80.3851 63.488C80.3851 60.464 76.8571 60.2 74.2651 60.056C71.0491 59.888 67.4011 59.672 67.4011 56.384C67.4011 53.096 70.8331 52.016 73.4971 52.016C76.5691 52.016 78.9451 53.312 80.0731 54.296ZM84.7777 60.128C84.7777 55.64 88.4977 52.016 93.2257 52.016C97.9777 52.016 101.77 55.64 101.77 60.128C101.77 64.688 97.9777 68.312 93.2257 68.312C88.4977 68.312 84.7777 64.688 84.7777 60.128ZM85.7617 60.128C85.7617 64.208 89.0257 67.472 93.2257 67.472C97.4497 67.472 100.786 64.208 100.786 60.128C100.786 56.12 97.4497 52.856 93.2257 52.856C89.0257 52.856 85.7617 56.12 85.7617 60.128ZM120.594 64.808L121.218 65.432C119.466 67.088 116.994 68.312 114.114 68.312C109.194 68.312 105.426 64.64 105.426 60.152C105.426 55.688 109.218 52.016 114.066 52.016C116.754 52.016 119.226 53.024 120.93 54.584L120.282 55.208C118.722 53.768 116.442 52.856 114.09 52.856C109.77 52.856 106.41 56.144 106.41 60.152C106.41 64.184 109.77 67.472 114.114 67.472C116.682 67.472 118.962 66.392 120.594 64.808ZM126.857 68H125.921V52.328H126.857V68ZM132.316 68H131.356L138.628 52.328H139.66L146.932 68H145.924L143.332 62.384H134.908L132.316 68ZM139.06 53.36L135.244 61.616H142.996L139.204 53.36H139.06ZM147.659 53.144V52.328H160.547V53.144H154.595V68H153.659V53.144H147.659ZM172.512 59.24V60.056H165.552V67.184H177.48V68H164.616V52.328H176.976V53.144H165.552V59.24H172.512ZM193.745 54.296L193.169 54.944C192.137 54.008 190.049 52.832 187.145 52.832C184.841 52.832 182.009 53.72 182.009 56.312C182.009 58.88 185.105 59.024 187.937 59.168C190.625 59.312 194.993 59.552 194.993 63.392C194.993 66.8 191.633 68.312 187.817 68.312C184.073 68.312 181.793 66.704 180.209 65.192L180.809 64.544C182.225 65.936 184.361 67.496 187.841 67.496C191.153 67.496 194.057 66.248 194.057 63.488C194.057 60.464 190.529 60.2 187.937 60.056C184.721 59.888 181.073 59.672 181.073 56.384C181.073 53.096 184.505 52.016 187.169 52.016C190.241 52.016 192.617 53.312 193.745 54.296Z" fill="white"/>
<path d="M22.2813 51.625C22.4398 51.625 22.5931 51.6824 22.7126 51.7867C22.8321 51.8909 22.9098 52.0349 22.9314 52.192L22.9375 52.2812L22.9384 58.625H29.2848C29.451 58.6251 29.6111 58.6882 29.7326 58.8017C29.8541 58.9152 29.9279 59.0706 29.9393 59.2365C29.9506 59.4024 29.8986 59.5664 29.7936 59.6954C29.6887 59.8244 29.5387 59.9087 29.374 59.9314L29.2848 59.9375H22.9384L22.9401 66.2812C22.9399 66.4474 22.8765 66.6073 22.763 66.7287C22.6494 66.85 22.494 66.9237 22.3282 66.9349C22.1624 66.9462 21.9985 66.894 21.8696 66.7891C21.7407 66.6842 21.6564 66.5343 21.6338 66.3696L21.6276 66.2804L21.6259 59.9375H15.283C15.1167 59.9374 14.9567 59.8743 14.8352 59.7608C14.7137 59.6473 14.6398 59.4919 14.6285 59.326C14.6171 59.1601 14.6692 58.9961 14.7741 58.8671C14.8791 58.7381 15.029 58.6538 15.1938 58.6311L15.283 58.625H21.6268L21.625 52.2812C21.625 52.1072 21.6941 51.9403 21.8172 51.8172C21.9403 51.6941 22.1072 51.625 22.2813 51.625Z" fill="black"/>
</svg>
