<svg width="150" height="41" viewBox="0 0 150 41" fill="none" xmlns="http://www.w3.org/2000/svg">
<path d="M16.1225 4.33008H18.1986L13.1539 9.16134L19.2658 17H17.0927L11.9316 10.2867L8.88536 13.2553V17H7.19733V4.33008H8.88536V11.3732L16.1225 4.33008ZM31.0409 4.33008H32.7289V12.4986C32.7289 15.5836 30.3424 17.3298 27.141 17.3298C23.9783 17.3298 21.5918 15.5836 21.5918 12.4986V4.33008H23.2604V12.4986C23.2604 14.6523 24.9679 15.8358 27.141 15.8358C29.3529 15.8358 31.0409 14.6523 31.0409 12.4986V4.33008ZM45.419 4.33008H47.3981L42.1982 11.0628V17H40.5101V11.0628L35.3102 4.33008H37.4445L41.422 9.56879L45.419 4.33008ZM59.1532 4.33008H61.2292L56.1846 9.16134L62.2964 17H60.1233L54.9622 10.2867L51.916 13.2553V17H50.228V4.33008H51.916V11.3732L59.1532 4.33008ZM71.685 9.5882V11.0822H66.5627V15.506H75.5073V17H64.8747V4.33008H75.0611V5.82409H66.5627V9.5882H71.685ZM88.3867 4.33008H90.0747V17H88.5419L80.4898 7.27928H80.4704V17H78.7824V4.33008H80.3152L88.3673 14.0508H88.3867V4.33008ZM100.401 17H94.7744V4.33008H100.401C102.768 4.33008 104.088 5.00918 105.232 6.09572C106.358 7.24048 106.998 8.8509 106.998 10.6553C106.998 12.4986 106.319 14.1866 105.135 15.3314C103.971 16.3791 102.768 17 100.401 17ZM96.4625 15.506H100.343C102.167 15.506 102.924 15.0403 103.816 14.2836C104.709 13.3911 105.232 12.0911 105.232 10.6553C105.232 9.25835 104.747 7.99718 103.874 7.10466C103.001 6.30915 102.147 5.82409 100.343 5.82409H96.4625V15.506ZM110.502 17H108.756L114.635 4.33008H116.226L122.105 17H120.262L118.535 13.1971H112.21L110.502 17ZM115.314 6.30915L112.811 11.8389H117.933L115.43 6.30915H115.314ZM125.072 4.33008H126.76V15.506H134.754V17H125.072V4.33008ZM137.502 4.33008H139.19V15.506H147.184V17H137.502V4.33008Z" fill="#B00F1F"/>
<path d="M16.1287 34.7856H14.3825L20.2615 22.1157H21.8525L27.7315 34.7856H25.8882L24.1614 30.9827H17.8361L16.1287 34.7856ZM20.9406 24.0948L18.4376 29.6245H23.5599L21.057 24.0948H20.9406ZM40.7299 23.6291L39.7209 24.7933C38.9642 24.1142 37.3538 23.2217 35.0255 23.2217C33.3957 23.2217 31.7271 23.8038 31.7271 25.3948C31.7271 27.0246 33.8225 27.1022 35.8792 27.2186C38.0911 27.3738 41.6612 27.5873 41.6612 30.9827C41.6612 33.9319 39.0418 35.1155 35.9956 35.1155C32.7748 35.1155 30.7181 33.7767 29.3405 32.5155L30.3689 31.3514C31.436 32.3409 33.2017 33.6797 36.0344 33.6797C38.1881 33.6797 39.9732 32.9036 39.9732 31.1962C39.9732 29.2947 38.0329 29.0037 35.8792 28.8484C33.1435 28.6738 30.039 28.4798 30.039 25.55C30.039 22.659 32.8136 21.7859 35.0837 21.7859C37.7031 21.7859 39.7597 22.8336 40.7299 23.6291ZM55.1113 23.6291L54.1024 24.7933C53.3457 24.1142 51.7353 23.2217 49.4069 23.2217C47.7771 23.2217 46.1085 23.8038 46.1085 25.3948C46.1085 27.0246 48.204 27.1022 50.2607 27.2186C52.4726 27.3738 56.0426 27.5873 56.0426 30.9827C56.0426 33.9319 53.4233 35.1155 50.3771 35.1155C47.1562 35.1155 45.0996 33.7767 43.722 32.5155L44.7503 31.3514C45.8175 32.3409 47.5831 33.6797 50.4159 33.6797C52.5696 33.6797 54.3546 32.9036 54.3546 31.1962C54.3546 29.2947 52.4144 29.0037 50.2607 28.8484C47.5249 28.6738 44.4205 28.4798 44.4205 25.55C44.4205 22.659 47.195 21.7859 49.4652 21.7859C52.0845 21.7859 54.1412 22.8336 55.1113 23.6291ZM58.3362 28.4216C58.3362 24.7545 61.4213 21.7859 65.36 21.7859C69.2793 21.7859 72.4226 24.7545 72.4226 28.4216C72.4226 32.1469 69.2793 35.1155 65.36 35.1155C61.4213 35.1155 58.3362 32.1469 58.3362 28.4216ZM60.1019 28.4216C60.1019 31.2932 62.3914 33.6215 65.36 33.6215C68.3286 33.6215 70.6569 31.2932 70.6569 28.4216C70.6569 25.5888 68.3286 23.2799 65.36 23.2799C62.3914 23.2799 60.1019 25.5888 60.1019 28.4216ZM86.7337 31.4872L87.859 32.5931C86.4814 33.9513 84.3859 35.1155 81.786 35.1155C77.692 35.1155 74.8204 32.1275 74.8204 28.441C74.8204 24.7933 77.692 21.7859 81.7084 21.7859C83.9785 21.7859 86.1128 22.659 87.5098 23.959L86.365 25.0843C85.2009 23.9784 83.4158 23.2799 81.7472 23.2799C78.7204 23.2799 76.5861 25.6276 76.5861 28.4604C76.5861 31.3126 78.7398 33.6215 81.8054 33.6215C83.8233 33.6215 85.5695 32.6902 86.7337 31.4872ZM92.7736 34.7856H91.0856V22.1157H92.7736V34.7856ZM97.5099 34.7856H95.7636L101.643 22.1157H103.234L109.113 34.7856H107.269L105.543 30.9827H99.2173L97.5099 34.7856ZM102.322 24.0948L99.8188 29.6245H104.941L102.438 24.0948H102.322ZM109.291 23.6097V22.1157H120.817V23.6097H115.908V34.7856H114.22V23.6097H109.291ZM130.581 27.3738V28.8678H125.459V33.2916H134.403V34.7856H123.771V22.1157H133.957V23.6097H125.459V27.3738H130.581ZM147.71 23.6291L146.701 24.7933C145.944 24.1142 144.334 23.2217 142.005 23.2217C140.375 23.2217 138.707 23.8038 138.707 25.3948C138.707 27.0246 140.802 27.1022 142.859 27.2186C145.071 27.3738 148.641 27.5873 148.641 30.9827C148.641 33.9319 146.022 35.1155 142.975 35.1155C139.755 35.1155 137.698 33.7767 136.32 32.5155L137.349 31.3514C138.416 32.3409 140.181 33.6797 143.014 33.6797C145.168 33.6797 146.953 32.9036 146.953 31.1962C146.953 29.2947 145.013 29.0037 142.859 28.8484C140.123 28.6738 137.019 28.4798 137.019 25.55C137.019 22.659 139.793 21.7859 142.063 21.7859C144.683 21.7859 146.739 22.8336 147.71 23.6291Z" fill="#B00F1F"/>
<path d="M8.40777 21.1275L8.49055 21.1226C8.66384 21.1226 8.83109 21.1862 8.96059 21.3014C9.09009 21.4165 9.17282 21.5752 9.19309 21.7473L9.19805 21.8301V26.7826H14.1505C14.3238 26.7826 14.4911 26.8462 14.6206 26.9614C14.7501 27.0765 14.8328 27.2352 14.8531 27.4073L14.858 27.4901C14.858 27.6633 14.7944 27.8306 14.6792 27.9601C14.5641 28.0896 14.4054 28.1723 14.2333 28.1926L14.1505 28.1976H9.19805V33.1501C9.19802 33.3233 9.1344 33.4906 9.01925 33.6201C8.9041 33.7496 8.74542 33.8323 8.57332 33.8526L8.49055 33.8576C8.31726 33.8575 8.15 33.7939 8.0205 33.6788C7.89101 33.5636 7.80827 33.4049 7.788 33.2328L7.78305 33.1501V28.1976H2.83055C2.65726 28.1975 2.49 28.1339 2.3605 28.0188C2.23101 27.9036 2.14827 27.7449 2.128 27.5728L2.12305 27.4901C2.12307 27.3168 2.18669 27.1495 2.30184 27.02C2.417 26.8905 2.57567 26.8078 2.74777 26.7875L2.83055 26.7826H7.78305V21.8301C7.78307 21.6568 7.84669 21.4895 7.96184 21.36C8.07699 21.2305 8.23567 21.1478 8.40777 21.1275Z" fill="black"/>
</svg>
