<svg width="120" height="45" viewBox="0 0 120 45" fill="none" xmlns="http://www.w3.org/2000/svg">
<rect width="120" height="44.1509" fill="white"/>
<path d="M18.4491 12.1857H19.0876L15.7457 15.5412L19.7668 21.0566H19.0876L15.3653 15.908L12.5804 18.7336V21.0566H12.0506V12.1857H12.5804V18.1359L18.4491 12.1857ZM28.9822 12.1857H29.512V17.9049C29.512 20.0378 27.8682 21.2332 25.6674 21.2332C23.4939 21.2332 21.8501 20.0378 21.8501 17.9049V12.1857H22.3799V17.9049C22.3799 19.7389 23.7927 20.7578 25.6674 20.7578C27.5693 20.7578 28.9822 19.7389 28.9822 17.9049V12.1857ZM38.9341 12.1857H39.559L35.9182 16.7638V21.0566H35.3884V16.7638L31.7476 12.1857H32.4133L35.6737 16.2883L38.9341 12.1857ZM48.4049 12.1857H49.0433L45.7015 15.5412L49.7226 21.0566H49.0433L45.3211 15.908L42.5362 18.7336V21.0566H42.0064V12.1857H42.5362V18.1359L48.4049 12.1857ZM56.4655 16.0981V16.56H52.5259V20.5948H59.2776V21.0566H51.996V12.1857H58.9923V12.6476H52.5259V16.0981H56.4655ZM68.9596 12.1857H69.4894V21.0566H68.946L62.3301 13.0144H62.3165V21.0566H61.7867V12.1857H62.3437L68.946 20.228H68.9596V12.1857ZM76.5647 21.0566H73.2092V12.1857H76.5647C78.3035 12.1857 79.2681 12.6883 80.1647 13.517C80.9662 14.3049 81.4416 15.4053 81.4416 16.6144C81.4416 17.837 80.939 18.951 80.1375 19.7525C79.2273 20.554 78.3171 21.0566 76.5647 21.0566ZM73.739 20.5948H76.5511C78.1269 20.5948 78.9149 20.1465 79.7164 19.4265C80.4364 18.7065 80.8847 17.7012 80.8847 16.6144C80.8847 15.5276 80.4635 14.5495 79.7299 13.8295C78.9284 13.1095 78.1133 12.6476 76.5511 12.6476H73.739V20.5948ZM83.6217 21.0566H83.0783L87.1945 12.1857H87.7787L91.8949 21.0566H91.3243L89.8572 17.8778H85.0889L83.6217 21.0566ZM87.4391 12.7698L85.2791 17.4431H89.667L87.5206 12.7698H87.4391ZM94.4356 12.1857H94.9654V20.5948H100.834V21.0566H94.4356V12.1857ZM103.006 12.1857H103.536V20.5948H109.404V21.0566H103.006V12.1857Z" fill="#B00F1F"/>
<path d="M17.6387 33.5098H17.0953L21.2115 24.6388H21.7956L25.9119 33.5098H25.3413L23.8741 30.3309H19.1058L17.6387 33.5098ZM21.456 25.223L19.296 29.8962H23.6839L21.5375 25.223H21.456ZM35.1499 25.7528L34.8239 26.1196C34.2397 25.5898 33.0578 24.9241 31.4141 24.9241C30.1099 24.9241 28.5069 25.4267 28.5069 26.8939C28.5069 28.3475 30.2594 28.429 31.8624 28.5105C33.3839 28.592 35.8563 28.7279 35.8563 30.9015C35.8563 32.8305 33.9544 33.6864 31.7944 33.6864C29.6752 33.6864 28.3846 32.7762 27.488 31.9203L27.8277 31.5535C28.6292 32.3415 29.8382 33.2245 31.808 33.2245C33.6827 33.2245 35.3265 32.5181 35.3265 30.9558C35.3265 29.2441 33.3295 29.0947 31.8624 29.0132C30.042 28.9181 27.9771 28.7958 27.9771 26.9347C27.9771 25.0735 29.9197 24.4622 31.4277 24.4622C33.1665 24.4622 34.5114 25.1958 35.1499 25.7528ZM45.3253 25.7528L44.9993 26.1196C44.4151 25.5898 43.2333 24.9241 41.5895 24.9241C40.2853 24.9241 38.6823 25.4267 38.6823 26.8939C38.6823 28.3475 40.4348 28.429 42.0378 28.5105C43.5593 28.592 46.0317 28.7279 46.0317 30.9015C46.0317 32.8305 44.1299 33.6864 41.9699 33.6864C39.8506 33.6864 38.56 32.7762 37.6634 31.9203L38.0031 31.5535C38.8046 32.3415 40.0136 33.2245 41.9834 33.2245C43.8582 33.2245 45.5019 32.5181 45.5019 30.9558C45.5019 29.2441 43.505 29.0947 42.0378 29.0132C40.2174 28.9181 38.1525 28.7958 38.1525 26.9347C38.1525 25.0735 40.0951 24.4622 41.6031 24.4622C43.3419 24.4622 44.6868 25.1958 45.3253 25.7528ZM47.9883 29.0539C47.9883 26.5135 50.094 24.4622 52.7702 24.4622C55.46 24.4622 57.6064 26.5135 57.6064 29.0539C57.6064 31.635 55.46 33.6864 52.7702 33.6864C50.094 33.6864 47.9883 31.635 47.9883 29.0539ZM48.5453 29.0539C48.5453 31.3634 50.3928 33.2109 52.7702 33.2109C55.1611 33.2109 57.0494 31.3634 57.0494 29.0539C57.0494 26.7852 55.1611 24.9377 52.7702 24.9377C50.3928 24.9377 48.5453 26.7852 48.5453 29.0539ZM68.2614 31.703L68.6146 32.0562C67.6229 32.9935 66.2237 33.6864 64.5935 33.6864C61.8086 33.6864 59.6758 31.6079 59.6758 29.0675C59.6758 26.5407 61.8222 24.4622 64.5663 24.4622C66.0878 24.4622 67.4871 25.0328 68.4516 25.9158L68.0848 26.269C67.2018 25.4539 65.9112 24.9377 64.5799 24.9377C62.1346 24.9377 60.2328 26.7988 60.2328 29.0675C60.2328 31.3498 62.1346 33.2109 64.5935 33.2109C66.0471 33.2109 67.3377 32.5996 68.2614 31.703ZM71.8067 33.5098H71.2769V24.6388H71.8067V33.5098ZM74.8969 33.5098H74.3535L78.4697 24.6388H79.0539L83.1701 33.5098H82.5996L81.1324 30.3309H76.3641L74.8969 33.5098ZM78.7143 25.223L76.5543 29.8962H80.9422L78.7958 25.223H78.7143ZM83.5816 25.1007V24.6388H90.8767V25.1007H87.5076V33.5098H86.9778V25.1007H83.5816ZM97.6493 28.5513V29.0132H93.7097V33.0479H100.461V33.5098H93.1799V24.6388H100.176V25.1007H93.7097V28.5513H97.6493ZM109.668 25.7528L109.342 26.1196C108.758 25.5898 107.576 24.9241 105.932 24.9241C104.628 24.9241 103.025 25.4267 103.025 26.8939C103.025 28.3475 104.777 28.429 106.38 28.5105C107.902 28.592 110.374 28.7279 110.374 30.9015C110.374 32.8305 108.472 33.6864 106.312 33.6864C104.193 33.6864 102.903 32.7762 102.006 31.9203L102.346 31.5535C103.147 32.3415 104.356 33.2245 106.326 33.2245C108.201 33.2245 109.845 32.5181 109.845 30.9558C109.845 29.2441 107.848 29.0947 106.38 29.0132C104.56 28.9181 102.495 28.7958 102.495 26.9347C102.495 25.0735 104.438 24.4622 105.946 24.4622C107.685 24.4622 109.029 25.1958 109.668 25.7528Z" fill="#B00F1F"/>
<path d="M12.6119 24.1274C12.7017 24.1274 12.7884 24.16 12.8561 24.219C12.9237 24.278 12.9677 24.3595 12.9799 24.4484L12.9834 24.4989L12.9839 28.0897H16.5762C16.6703 28.0897 16.7609 28.1255 16.8296 28.1897C16.8984 28.254 16.9402 28.342 16.9466 28.4358C16.9531 28.5297 16.9236 28.6226 16.8642 28.6956C16.8048 28.7686 16.7199 28.8163 16.6267 28.8292L16.5762 28.8326H12.9839L12.9849 32.4234C12.9847 32.5175 12.9489 32.608 12.8846 32.6767C12.8203 32.7454 12.7323 32.7871 12.6385 32.7934C12.5446 32.7998 12.4518 32.7703 12.3789 32.7109C12.3059 32.6515 12.2582 32.5667 12.2454 32.4735L12.2419 32.4229L12.241 28.8326H8.65065C8.55653 28.8326 8.46593 28.7968 8.39716 28.7326C8.32839 28.6683 8.28658 28.5804 8.28016 28.4865C8.27375 28.3926 8.30321 28.2998 8.36261 28.2268C8.422 28.1537 8.50689 28.106 8.60013 28.0932L8.65065 28.0897H12.2414L12.2405 24.4989C12.2405 24.4004 12.2796 24.3059 12.3493 24.2362C12.4189 24.1666 12.5134 24.1274 12.6119 24.1274Z" fill="black"/>
</svg>
