<svg width="177" height="170" viewBox="0 0 177 170" fill="none" xmlns="http://www.w3.org/2000/svg">
<rect y="1" width="177" height="169" fill="#B00F1F"/>
<path d="M42.584 150.222H38.552V134.238H38.372L30.56 147.414H29.912L22.1 134.238H21.92V150.222H18.068V126.714H22.208L30.38 140.574H30.452L38.624 126.714H42.584V150.222ZM72.9042 143.382L75.6042 146.046C73.0842 148.566 69.1242 150.942 64.0122 150.942C56.2722 150.942 51.1602 145.362 51.1602 138.45C51.1602 131.646 56.3082 125.994 63.8322 125.994C68.1162 125.994 72.2202 127.686 74.8482 130.134L72.1122 132.834C70.0242 130.854 66.7842 129.594 63.9042 129.594C58.7562 129.594 55.4082 133.626 55.4082 138.486C55.4082 143.382 58.8282 147.342 64.0842 147.342C67.7562 147.342 70.8882 145.542 72.9042 143.382ZM83.5416 126.714H87.5736V146.622H102.01V150.222H83.5416V126.714ZM106.166 150.222L117.074 126.714H120.746L131.654 150.222H127.226L124.382 143.886H113.186L110.378 150.222H106.166ZM118.694 131.538L114.626 140.646H122.942L118.91 131.538H118.694ZM143.133 150.222H139.101V126.714H152.061C155.373 126.714 157.425 127.65 158.865 129.198C160.125 130.566 160.737 132.186 160.737 133.914C160.737 135.93 159.909 137.694 158.577 138.99C157.173 140.322 155.193 141.186 152.061 141.186H143.133V150.222ZM152.061 130.314H143.133V137.586H152.061C153.069 137.586 154.473 137.514 155.625 136.434C156.309 135.786 156.705 134.886 156.705 133.95C156.705 133.014 156.345 132.222 155.733 131.574C154.653 130.422 153.213 130.314 152.061 130.314Z" fill="white"/>
<path d="M118.995 18.9302C119.552 19.6484 120.94 21.405 121.971 22.8436C124.236 25.878 129.045 30.5537 129.522 30.2368C130.123 29.919 127.827 24.4533 126.434 22.7757C124.848 20.8594 122.778 19.4587 120.034 18.415L117.881 17.6111L118.995 18.9302Z" fill="white"/>
<path d="M57.6641 19.7168C55.2702 20.945 52.8726 23.1315 51.8719 25.0407C51.1501 26.4732 49.7843 30.6534 49.9823 30.8538C50.3009 31.1729 55.6551 25.8873 57.0556 23.8991C57.936 22.6668 59.1753 20.9952 59.8955 20.1608C60.935 18.929 61.0158 18.6899 60.3769 18.6881C59.9773 18.687 58.7807 19.1623 57.6641 19.7168Z" fill="white"/>
<path d="M128.905 23.5782C129.739 24.5364 131.636 30.001 132.542 34.148L132.777 35.3044L131.745 34.2654C131.188 33.7052 129.678 32.4663 128.443 31.5464C127.212 30.6266 125.382 29.1463 124.429 28.2691C122.879 26.7909 122.72 26.7103 122.996 27.6263C123.666 30.2579 125.053 32.1748 127.919 34.5337C129.588 35.8927 131.774 37.8512 132.769 38.8901C133.801 39.9685 134.757 40.8087 134.876 40.809C134.996 40.8093 135.12 38.5783 135.128 35.8277C135.14 31.444 135.023 30.6073 134.189 28.6931C133.163 26.3393 130.619 23.5422 129.225 23.1412C128.388 22.9403 128.348 22.9796 128.905 23.5782Z" fill="white"/>
<path d="M47.8047 25.7476C45.1276 28.6093 44.7234 30.2821 44.9802 38.2918L45.0518 41.4003L47.9283 38.6983C54.0808 32.898 55.2785 31.5457 56.1607 29.6757C56.6827 28.641 56.9642 27.6452 56.8437 27.5252C56.7245 27.3646 56.046 27.8413 55.3262 28.5572C54.6065 29.2336 53.0497 30.6232 51.811 31.6164C50.5342 32.5688 48.8548 34.1579 48.0555 35.0722C47.2154 36.0258 46.6974 36.424 46.8578 35.9854C47.0181 35.5479 47.5018 33.6756 47.9448 31.8044C48.3879 29.9332 49.1917 27.3858 49.7132 26.1118C50.9188 23.2065 50.2827 23.084 47.8047 25.7476Z" fill="white"/>
<path d="M136.554 38.384C136.381 42.3282 136.371 46.0347 136.492 46.6716L136.687 47.7884L136.251 46.7918C135.972 46.2335 135.459 45.0751 135.024 44.1574C134.588 43.1596 132.919 41.2826 130.615 39.2052C128.629 37.3656 127.198 36.127 127.475 36.4065C127.714 36.7266 127.95 37.4451 127.949 38.0015C127.946 39.1572 130.285 43.2686 132.944 46.8222C133.899 48.0595 135.208 50.1365 135.841 51.4532C136.991 53.7667 136.991 53.7667 137.272 52.5722C137.436 51.8954 137.914 50.3031 138.317 48.9881C139.763 44.6885 139.965 43.4543 139.816 39.8275C139.704 37.2357 139.391 35.6818 138.757 34.1654C137.056 30.2567 136.893 30.5745 136.554 38.384Z" fill="white"/>
<path d="M41.6865 33.58C40.3638 36.4072 39.7168 39.7928 40.0275 42.542C40.1833 43.7377 40.9719 46.7694 41.8025 49.2819L43.3442 53.8687L44.2674 51.8791C44.7477 50.8048 46.029 48.6965 47.1099 47.2241C49.5888 43.8042 51.6728 39.9847 52.0354 38.2328L52.3179 36.8792L49.8808 38.9843C47.0442 41.4868 45.2046 43.9118 44.202 46.4995L43.5197 48.3306L43.4923 43.9466C43.4583 41.5164 43.3074 38.4865 43.1125 37.1315C42.9163 35.816 42.8819 33.9829 43.0842 33.0681C43.4878 30.7576 42.9284 30.9941 41.6865 33.58Z" fill="white"/>
<path d="M141.476 45.212C141.472 46.5257 140.589 49.3937 138.903 53.5732C138.138 55.4436 137.298 57.753 137.018 58.7082L136.494 60.4596L136.022 57.8691C135.749 56.4338 135.234 54.6388 134.878 53.9211C133.767 51.8051 131.032 47.1755 130.752 46.9749C129.956 46.4941 131.961 56.5813 133.344 60.1315C133.663 61.0106 134.056 63.0829 134.21 64.7177L134.442 67.7072L137.479 63.6103C141.521 58.1618 142.404 55.654 142.42 49.9946C142.427 47.5645 142.234 45.4522 141.955 45.0123C141.518 44.2561 141.518 44.2561 141.476 45.212Z" fill="white"/>
<path d="M38.0262 45.9237C37.4243 47.237 37.6833 54.4502 38.3945 56.9229C39.0655 59.1562 39.8588 60.4733 43.5932 65.2277L45.5785 67.7422L45.8625 65.393C45.9868 64.1179 46.7523 60.7339 47.5176 57.8656C48.3234 55.0369 49.0501 51.3741 49.2137 49.7401L49.4612 46.7519L48.2204 48.9417C44.8971 54.8696 44.174 56.7413 44.1271 59.4501C44.0837 60.8845 43.9204 61.9609 43.7221 61.8396C43.5633 61.7195 43.4042 61.2799 43.4054 60.842C43.4078 59.9674 41.908 54.9416 41.4312 54.3013C40.8758 53.5029 38.9781 48.2774 38.7024 46.7224C38.4262 45.3684 38.3475 45.2473 38.0262 45.9237Z" fill="white"/>
<path d="M48.4172 63.6853C47.6463 68.6245 47.7582 71.4532 48.8278 74.0465C49.4601 75.6024 49.1819 75.403 47.4359 72.9264C46.7613 71.9674 44.7351 69.5713 42.9075 67.6137C41.0801 65.6166 39.1343 63.1406 38.5388 62.1424C37.4682 60.3089 37.4288 60.2681 37.4256 61.4633C37.4168 64.6506 39.0388 68.7206 41.5409 71.636C43.6052 74.1111 52.5946 80.4709 53.1943 79.9174C53.3143 79.7969 53.1175 79.1192 52.7593 78.441C52.2049 77.2837 51.8919 75.371 50.9569 67.2792C50.4506 63.0149 49.7428 59.3471 49.4252 59.1069C49.2675 59.0263 48.8227 61.0962 48.4172 63.6853Z" fill="white"/>
<path d="M130.358 59.8061C129.878 60.6423 129.227 65.0625 128.655 70.9188C128.244 75.3002 128.042 76.3764 127.4 77.9289C127.161 78.5252 127.039 79.1626 127.078 79.4008C127.354 80.1206 134.341 75.3157 137.098 72.5751C140.533 69.1172 142.216 65.8148 142.503 62.0696L142.712 59.3602L141.671 61.5085C141.07 62.6627 139.391 64.8894 137.911 66.4802C136.39 68.0302 134.553 70.0962 133.795 71.0896C133.072 72.0842 132.313 73.0393 132.114 73.2769C131.954 73.4762 131.555 74.0327 131.194 74.4696C130.673 75.186 130.673 75.1059 131.196 73.8714C132.6 70.3696 132.683 68.8947 131.861 63.9918C131.389 61.4397 130.957 59.2873 130.876 59.2069C130.798 59.1289 130.558 59.4082 130.358 59.8061Z" fill="white"/>
<path d="M124.986 71.7467C123.985 73.2168 122.784 75.6052 122.301 77.0396C121.781 78.4715 121.219 79.9847 121.056 80.4221C120.856 80.8607 120.416 82.0942 120.016 83.1292C119.653 84.2026 118.813 85.7952 118.172 86.6704C117.532 87.5456 117.093 88.3413 117.17 88.4611C117.647 88.9398 126.18 86.8527 128.415 85.7031C130.931 84.4357 134.284 81.6955 135.925 79.4675C137.285 77.6394 138.607 75.2119 138.609 74.4557C138.609 74.3349 137.57 75.1696 136.29 76.3218C134.894 77.591 132.499 79.1793 130.383 80.2096C128.427 81.2021 125.873 82.5482 124.757 83.3025C123.598 84.0184 122.641 84.5315 122.641 84.4525C122.642 84.3328 123.243 83.0603 124.002 81.5477C124.846 79.8786 125.567 77.6875 125.852 75.8529C126.095 74.2216 126.5 72.0703 126.701 71.1149C126.942 70.1584 127.027 69.3235 126.945 69.2013C126.825 69.1208 125.945 70.2753 124.986 71.7467Z" fill="white"/>
<path d="M53.5359 71.869C54.1197 77.1314 55.2648 81.0002 56.931 83.3546C57.8046 84.5917 58.7182 85.6303 58.9575 85.631C59.1968 85.6317 59.315 85.7121 59.1962 85.8315C59.0763 85.952 57.7633 85.2293 56.2514 84.2297C54.7407 83.1895 51.7184 81.5061 49.4888 80.4256C46.5841 79.0226 44.9133 77.9017 43.3634 76.3445C41.6942 74.6673 41.3359 74.4258 41.573 75.2233C42.1657 77.2565 45.4998 81.7296 47.6476 83.4081C49.6747 85.048 52.0233 86.3693 53.8939 87.0134C55.1669 87.4536 62.6554 88.789 62.8139 88.592C62.8943 88.5109 62.5386 87.7537 62.0215 86.9543C60.9505 85.2775 60.0005 83.1237 58.0618 78.0587C56.836 74.7878 55.6457 72.552 54.0578 70.4754L53.2637 69.4778L53.5359 71.869Z" fill="white"/>
<path d="M114.472 84.2692C112.114 86.5337 109.917 88.5198 109.556 88.7199C109.158 88.9162 108.681 89.3133 108.399 89.5518C108.161 89.7917 106.923 90.3459 105.685 90.7002C104.45 91.0965 103.533 91.4924 103.613 91.5716C103.693 91.6508 104.57 91.8937 105.523 92.0949C106.481 92.2961 108.87 92.8603 110.82 93.3047C117.233 94.7964 121.339 94.2513 125.81 91.313C128.165 89.7664 130.481 87.5808 130.126 87.222C130.004 87.1009 129.13 87.4574 128.17 87.9729C125.776 89.2812 124.022 89.6761 118.641 90.1399C116.13 90.3711 113.339 90.6422 112.463 90.799L110.868 91.0339L112.743 89.8426C114.779 88.532 116.819 86.0668 117.739 83.7984C118.021 83.043 118.502 82.0081 118.744 81.5314C119.705 79.5825 118.546 80.3343 114.472 84.2692Z" fill="white"/>
<path d="M60.8848 80.6967C60.8844 80.8546 61.6362 82.4516 62.5479 84.2082C64.3318 87.72 66.3576 89.8374 68.7459 90.6815C70.5377 91.3229 70.2984 91.3223 66.4351 90.8343C64.8013 90.5905 61.4952 90.2237 59.1446 90.0174C55.958 89.7299 54.2456 89.3662 52.6133 88.6044C51.38 88.0434 50.3055 87.642 50.2251 87.722C49.7859 88.197 53.9202 91.5178 56.4677 92.7596C59.2543 94.0834 59.7314 94.2032 63.2384 94.1745C66.0681 94.1823 68.14 93.908 71.4111 93.0782C73.8429 92.4471 75.9565 91.8176 76.1172 91.6577C76.3163 91.4991 75.6795 91.1779 74.7241 90.9372C72.4141 90.3314 70.506 88.9322 65.6964 84.4561C61.7616 80.7768 60.8865 80.0589 60.8848 80.6967Z" fill="white"/>
<path d="M80.1796 92.2254C79.1032 92.5012 76.1114 93.5698 73.5972 94.5967C67.5336 97.0939 63.2684 97.4388 59.0493 95.794C57.4166 95.1518 60.6392 97.6314 62.8271 98.6735C64.6971 99.5964 65.5343 99.7159 68.8019 99.7249C73.1858 99.7369 74.581 99.2622 79.4106 96.0484C82.924 93.6663 84.6791 92.8742 86.3541 92.8788C88.107 92.8836 87.8267 93.4416 85.3931 94.7092C82.2802 96.3339 76.7689 100.783 76.7665 101.658C76.7654 102.056 77.0835 102.537 77.4406 102.777C77.9986 103.057 78.7165 102.62 81.1541 100.318C84.6295 96.9781 88.8228 94.0821 90.1378 94.0857C91.4132 94.0892 95.5895 96.9699 98.9285 100.168C100.479 101.688 101.91 102.885 102.108 102.885C102.307 102.886 102.787 102.529 103.185 102.093C103.825 101.337 103.786 101.259 102.753 100.258C101.203 98.7812 96.4313 95.4203 94.4406 94.4182C93.008 93.6963 92.8088 93.496 93.3672 93.1804C94.5655 92.5053 96.7554 93.2687 100.415 95.5904C102.442 96.8702 104.512 98.1537 105.069 98.3922C109.567 100.516 115.424 100.016 119.776 97.1582C121.813 95.8094 121.895 95.1719 119.98 95.9635C117.028 97.1902 111.528 96.657 107.271 94.7334C101.42 92.0874 98.4319 91.4403 94.1675 91.9072C90.7386 92.2567 89.9035 92.2544 85.561 91.9637C83.3288 91.7961 81.4955 91.87 80.1796 92.2254Z" fill="white"/>
<path d="M78.3456 56.363L66.114 36.3367L53.8823 56.363C56.672 60.8267 61.112 63.7142 66.114 63.7142C71.1159 63.7142 75.5567 60.8267 78.3456 56.363ZM55.0473 56.2706L66.114 38.0842L77.1823 56.2706H55.0473ZM112.133 36.3367L99.9015 56.363C102.69 60.8267 107.131 63.7142 112.133 63.7142C117.135 63.7142 121.576 60.8267 124.365 56.363L112.133 36.3367ZM101.065 56.2706L112.133 38.0842L123.2 56.2706H101.065Z" fill="white"/>
<path d="M66.1152 36.9192L112.133 36.9192" stroke="white" strokeWidth="1.45625"/>
<path d="M87.8772 37.8776C87.9234 37.3922 88.331 37.0215 88.8186 37.0215V37.0215C89.3176 37.0215 89.7307 37.4092 89.7623 37.9073L91.3881 63.5499C91.4313 64.2302 91.6244 64.8924 91.9536 65.4893V65.4893C92.7288 66.8947 94.1779 67.7971 95.7811 67.8729L106.328 68.3717C106.506 68.3801 106.68 68.4287 106.836 68.5138V68.5138C107.06 68.6355 107.239 68.8264 107.345 69.0578L107.357 69.0834C107.433 69.2491 107.472 69.4293 107.472 69.6117V70.6421C107.472 70.8245 107.433 71.0047 107.357 71.1704L107.338 71.2112C107.236 71.4328 107.065 71.6155 106.851 71.732V71.732C106.685 71.8221 106.5 71.8693 106.311 71.8693H71.3536C71.1649 71.8693 70.9793 71.8221 70.8136 71.732V71.732C70.5994 71.6155 70.4286 71.4328 70.3267 71.2112L70.308 71.1704C70.2318 71.0047 70.1924 70.8245 70.1924 70.6421V69.6117C70.1924 69.4293 70.2318 69.2491 70.308 69.0834L70.3196 69.0582C70.4261 68.8265 70.6047 68.6355 70.8287 68.5137V68.5137C70.985 68.4287 71.1584 68.38 71.3361 68.3715L81.3523 67.8872C83.0618 67.8046 84.5561 66.7074 85.1469 65.101V65.101C85.2733 64.7571 85.3549 64.3982 85.3896 64.0334L87.8772 37.8776Z" fill="white"/>
</svg>
