<svg width="367" height="150" viewBox="0 0 367 150" fill="none" xmlns="http://www.w3.org/2000/svg">
<rect x="0.5" y="0.5" width="366" height="118" fill="#B00F1F" stroke="black"/>
<path d="M195.112 75H189.736V53.688H189.496L179.08 71.256H178.216L167.8 53.688H167.56V75H162.424V43.656H167.944L178.84 62.136H178.936L189.832 43.656H195.112V75ZM235.539 65.88L239.139 69.432C235.779 72.792 230.499 75.96 223.683 75.96C213.363 75.96 206.547 68.52 206.547 59.304C206.547 50.232 213.411 42.696 223.443 42.696C229.155 42.696 234.627 44.952 238.131 48.216L234.483 51.816C231.699 49.176 227.379 47.496 223.539 47.496C216.675 47.496 212.211 52.872 212.211 59.352C212.211 65.88 216.771 71.16 223.779 71.16C228.675 71.16 232.851 68.76 235.539 65.88ZM249.722 43.656H255.098V70.2H274.346V75H249.722V43.656ZM279.888 75L294.432 43.656H299.328L313.872 75H307.968L304.176 66.552H289.248L285.504 75H279.888ZM296.592 50.088L291.168 62.232H302.256L296.88 50.088H296.592ZM329.178 75H323.802V43.656H341.082C345.498 43.656 348.234 44.904 350.154 46.968C351.834 48.792 352.65 50.952 352.65 53.256C352.65 55.944 351.546 58.296 349.77 60.024C347.898 61.8 345.258 62.952 341.082 62.952H329.178V75ZM341.082 48.456H329.178V58.152H341.082C342.426 58.152 344.298 58.056 345.834 56.616C346.746 55.752 347.274 54.552 347.274 53.304C347.274 52.056 346.794 51 345.978 50.136C344.538 48.6 342.618 48.456 341.082 48.456Z" fill="white"/>
<path d="M99.9952 18.7085C100.552 19.4267 101.94 21.1833 102.971 22.6219C105.236 25.6563 110.045 30.332 110.522 30.0151C111.123 29.6973 108.827 24.2316 107.434 22.554C105.848 20.6377 103.778 19.237 101.034 18.1933L98.8813 17.3894L99.9952 18.7085Z" fill="white"/>
<path d="M38.6641 19.4951C36.2702 20.7233 33.8726 22.9098 32.8719 24.819C32.1501 26.2515 30.7843 30.4317 30.9823 30.6321C31.3009 30.9512 36.6551 25.6657 38.0556 23.6774C38.936 22.4451 40.1753 20.7735 40.8955 19.9392C41.935 18.7073 42.0158 18.4682 41.3769 18.4665C40.9773 18.4654 39.7807 18.9407 38.6641 19.4951Z" fill="white"/>
<path d="M109.905 23.3565C110.739 24.3148 112.636 29.7793 113.542 33.9263L113.777 35.0827L112.745 34.0437C112.188 33.4835 110.678 32.2446 109.443 31.3247C108.212 30.4049 106.382 28.9247 105.429 28.0474C103.879 26.5692 103.72 26.4886 103.996 27.4046C104.666 30.0362 106.053 31.9532 108.919 34.312C110.588 35.671 112.774 37.6296 113.769 38.6684C114.801 39.7468 115.757 40.587 115.876 40.5873C115.996 40.5876 116.12 38.3566 116.128 35.606C116.14 31.2223 116.023 30.3856 115.189 28.4714C114.163 26.1176 111.619 23.3205 110.225 22.9195C109.388 22.7186 109.348 22.758 109.905 23.3565Z" fill="white"/>
<path d="M28.8047 25.5259C26.1276 28.3877 25.7234 30.0604 25.9802 38.0701L26.0518 41.1786L28.9283 38.4766C35.0808 32.6763 36.2785 31.3241 37.1607 29.454C37.6827 28.4194 37.9642 27.4235 37.8437 27.3035C37.7245 27.1429 37.046 27.6196 36.3262 28.3355C35.6065 29.0119 34.0497 30.4015 32.811 31.3947C31.5342 32.3472 29.8548 33.9362 29.0555 34.8505C28.2154 35.8042 27.6974 36.2024 27.8578 35.7637C28.0181 35.3262 28.5018 33.4539 28.9448 31.5827C29.3879 29.7115 30.1917 27.1641 30.7132 25.8901C31.9188 22.9849 31.2827 22.8623 28.8047 25.5259Z" fill="white"/>
<path d="M117.554 38.1623C117.381 42.1065 117.371 45.8131 117.492 46.4499L117.687 47.5667L117.251 46.5701C116.972 46.0118 116.459 44.8534 116.024 43.9357C115.588 42.9379 113.919 41.0609 111.615 38.9835C109.629 37.1439 108.198 35.9053 108.475 36.1848C108.714 36.5049 108.95 37.2234 108.949 37.7798C108.946 38.9355 111.285 43.0469 113.944 46.6005C114.899 47.8378 116.208 49.9149 116.841 51.2315C117.991 53.545 117.991 53.545 118.272 52.3505C118.436 51.6738 118.914 50.0814 119.317 48.7664C120.763 44.4668 120.965 43.2326 120.816 39.6058C120.704 37.014 120.391 35.4602 119.757 33.9437C118.056 30.0351 117.893 30.3529 117.554 38.1623Z" fill="white"/>
<path d="M22.6865 33.3583C21.3638 36.1856 20.7168 39.5711 21.0275 42.3203C21.1833 43.516 21.9719 46.5477 22.8025 49.0602L24.3442 53.6471L25.2674 51.6574C25.7477 50.5831 27.029 48.4748 28.1099 47.0025C30.5888 43.5825 32.6728 39.763 33.0354 38.0111L33.3179 36.6575L30.8808 38.7626C28.0442 41.2651 26.2046 43.6901 25.202 46.2778L24.5197 48.1089L24.4923 43.7249C24.4583 41.2947 24.3074 38.2648 24.1125 36.9098C23.9163 35.5943 23.8819 33.7612 24.0842 32.8464C24.4878 30.5359 23.9284 30.7725 22.6865 33.3583Z" fill="white"/>
<path d="M122.476 44.9903C122.472 46.304 121.589 49.172 119.903 53.3515C119.138 55.222 118.298 57.5313 118.018 58.4865L117.494 60.238L117.022 57.6474C116.749 56.2121 116.234 54.4171 115.878 53.6995C114.767 51.5834 112.032 46.9538 111.752 46.7532C110.956 46.2725 112.961 56.3596 114.344 59.9099C114.663 60.789 115.056 62.8612 115.21 64.496L115.442 67.4855L118.479 63.3886C122.521 57.9401 123.404 55.4323 123.42 49.7729C123.427 47.3428 123.234 45.2305 122.955 44.7906C122.518 44.0344 122.518 44.0344 122.476 44.9903Z" fill="white"/>
<path d="M19.0262 45.702C18.4243 47.0153 18.6833 54.2285 19.3945 56.7012C20.0655 58.9345 20.8588 60.2516 24.5932 65.006L26.5785 67.5205L26.8625 65.1714C26.9868 63.8962 27.7523 60.5123 28.5176 57.644C29.3234 54.8153 30.0501 51.1524 30.2137 49.5184L30.4612 46.5302L29.2204 48.72C25.8971 54.6479 25.174 56.5196 25.1271 59.2284C25.0837 60.6629 24.9204 61.7393 24.7221 61.6179C24.5633 61.4978 24.4042 61.0582 24.4054 60.6203C24.4078 59.7457 22.908 54.7199 22.4312 54.0796C21.8758 53.2813 19.9781 48.0557 19.7024 46.5007C19.4262 45.1467 19.3475 45.0257 19.0262 45.702Z" fill="white"/>
<path d="M29.4172 63.4637C28.6463 68.4029 28.7582 71.2316 29.8278 73.8248C30.4601 75.3807 30.1819 75.1813 28.4359 72.7047C27.7613 71.7457 25.7351 69.3496 23.9075 67.392C22.0801 65.3949 20.1343 62.9189 19.5388 61.9207C18.4682 60.0872 18.4288 60.0464 18.4256 61.2416C18.4168 64.4289 20.0388 68.4989 22.5409 71.4143C24.6052 73.8894 33.5946 80.2492 34.1943 79.6957C34.3143 79.5752 34.1175 78.8975 33.7593 78.2193C33.2049 77.062 32.8919 75.1493 31.9569 67.0576C31.4506 62.7932 30.7428 59.1254 30.4252 58.8852C30.2675 58.8047 29.8227 60.8745 29.4172 63.4637Z" fill="white"/>
<path d="M111.358 59.5844C110.878 60.4206 110.227 64.8409 109.655 70.6971C109.244 75.0785 109.042 76.1548 108.4 77.7072C108.161 78.3035 108.039 78.9409 108.078 79.1791C108.354 79.8989 115.341 75.094 118.098 72.3534C121.533 68.8955 123.216 65.5932 123.503 61.8479L123.712 59.1385L122.671 61.2869C122.07 62.441 120.391 64.6677 118.911 66.2585C117.39 67.8085 115.553 69.8745 114.795 70.8679C114.072 71.8626 113.313 72.8176 113.114 73.0552C112.954 73.2545 112.555 73.811 112.194 74.2479C111.673 74.9643 111.673 74.8842 112.196 73.6497C113.6 70.148 113.683 68.673 112.861 63.7701C112.389 61.218 111.957 59.0656 111.876 58.9852C111.798 58.9072 111.558 59.1865 111.358 59.5844Z" fill="white"/>
<path d="M105.986 71.525C104.985 72.9951 103.784 75.3835 103.301 76.8179C102.781 78.2498 102.219 79.763 102.056 80.2004C101.856 80.639 101.416 81.8725 101.016 82.9075C100.653 83.9809 99.8125 85.5735 99.1724 86.4487C98.5323 87.324 98.0934 88.1196 98.1697 88.2394C98.6469 88.7181 107.18 86.631 109.415 85.4814C111.931 84.2141 115.284 81.4738 116.925 79.2458C118.285 77.4178 119.607 74.9902 119.609 74.2341C119.609 74.1132 118.57 74.9479 117.29 76.1001C115.894 77.3693 113.499 78.9576 111.383 79.9879C109.427 80.9804 106.873 82.3266 105.757 83.0808C104.598 83.7967 103.641 84.3098 103.641 84.2308C103.642 84.1112 104.243 82.8386 105.002 81.326C105.846 79.6569 106.567 77.4658 106.852 75.6312C107.095 73.9999 107.5 71.8486 107.701 70.8932C107.942 69.9367 108.027 69.1019 107.945 68.9796C107.825 68.8991 106.945 70.0537 105.986 71.525Z" fill="white"/>
<path d="M34.5359 71.6473C35.1197 76.9097 36.2648 80.7785 37.931 83.1329C38.8046 84.37 39.7182 85.4087 39.9575 85.4093C40.1968 85.41 40.315 85.4905 40.1962 85.6098C40.0763 85.7303 38.7633 85.0076 37.2514 84.008C35.7407 82.9678 32.7184 81.2845 30.4888 80.2039C27.5841 78.8009 25.9133 77.6801 24.3634 76.1228C22.6942 74.4456 22.3359 74.2042 22.573 75.0016C23.1657 77.0348 26.4998 81.5079 28.6476 83.1864C30.6747 84.8263 33.0233 86.1476 34.8939 86.7917C36.1669 87.2319 43.6554 88.5673 43.8139 88.3703C43.8943 88.2892 43.5386 87.5321 43.0215 86.7326C41.9505 85.0559 41.0005 82.902 39.0618 77.837C37.836 74.5661 36.6457 72.3303 35.0578 70.2537L34.2637 69.2561L34.5359 71.6473Z" fill="white"/>
<path d="M95.4717 84.0475C93.1143 86.312 90.9169 88.2982 90.5562 88.4982C90.1584 88.6945 89.6811 89.0916 89.3993 89.3302C89.1606 89.57 87.9231 90.1242 86.6849 90.4785C85.4502 90.8748 84.5326 91.2707 84.6126 91.3499C84.6925 91.4291 85.5701 91.672 86.5231 91.8732C87.481 92.0745 89.87 92.6386 91.8203 93.083C98.233 94.5747 102.339 94.0296 106.81 91.0913C109.165 89.5447 111.481 87.3591 111.126 87.0004C111.004 86.8792 110.13 87.2357 109.17 87.7512C106.776 89.0596 105.022 89.4544 99.6409 89.9182C97.13 90.1494 94.3391 90.4206 93.4628 90.5773L91.8684 90.8122L93.743 89.6209C95.7794 88.3103 97.8191 85.8451 98.7394 83.5767C99.0215 82.8213 99.5017 81.7864 99.7435 81.3097C100.705 79.3609 99.5458 80.1127 95.4717 84.0475Z" fill="white"/>
<path d="M41.8848 80.475C41.8844 80.6329 42.6362 82.2299 43.5479 83.9865C45.3318 87.4983 47.3576 89.6157 49.7459 90.4598C51.5377 91.1012 51.2984 91.1006 47.4351 90.6126C45.8013 90.3688 42.4952 90.002 40.1446 89.7957C36.958 89.5082 35.2456 89.1445 33.6133 88.3827C32.38 87.8217 31.3055 87.4204 31.2251 87.5003C30.7859 87.9753 34.9202 91.2962 37.4677 92.5379C40.2543 93.8617 40.7314 93.9815 44.2384 93.9528C47.0681 93.9606 49.14 93.6863 52.4111 92.8565C54.8429 92.2254 56.9565 91.5959 57.1172 91.436C57.3163 91.2774 56.6795 90.9562 55.7241 90.7155C53.4141 90.1097 51.506 88.7105 46.6964 84.2344C42.7616 80.5552 41.8865 79.8373 41.8848 80.475Z" fill="white"/>
<path d="M61.1796 92.0037C60.1032 92.2795 57.1114 93.3482 54.5972 94.375C48.5336 96.8722 44.2684 97.2171 40.0493 95.5723C38.4166 94.9301 41.6392 97.4097 43.8271 98.4519C45.6971 99.3747 46.5343 99.4943 49.8019 99.5032C54.1858 99.5152 55.581 99.0405 60.4106 95.8268C63.924 93.4446 65.6791 92.6526 67.3541 92.6572C69.107 92.662 68.8267 93.22 66.3931 94.4876C63.2802 96.1122 57.7689 100.561 57.7665 101.436C57.7654 101.834 58.0835 102.315 58.4406 102.555C58.9986 102.836 59.7165 102.398 62.1541 100.096C65.6295 96.7564 69.8228 93.8604 71.1378 93.864C72.4132 93.8675 76.5895 96.7482 79.9285 99.946C81.4786 101.466 82.9099 102.663 83.1085 102.664C83.3071 102.664 83.7867 102.308 84.1851 101.871C84.8249 101.115 84.7857 101.037 83.7534 100.037C82.2032 98.5595 77.4313 95.1986 75.4406 94.1965C74.008 93.4747 73.8088 93.2743 74.3672 92.9588C75.5655 92.2836 77.7554 93.047 81.4151 95.3687C83.4421 96.6485 85.5121 97.9321 86.069 98.1705C90.5668 100.295 96.4238 99.7938 100.776 96.9366C102.813 95.5877 102.895 94.9502 100.98 95.7418C98.0277 96.9685 92.5277 96.4354 88.271 94.5117C82.4202 91.8657 79.4319 91.2186 75.1675 91.6855C71.7386 92.035 70.9035 92.0327 66.561 91.742C64.3288 91.5744 62.4955 91.6483 61.1796 92.0037Z" fill="white"/>
<path d="M59.3456 56.1413L47.114 36.115L34.8823 56.1413C37.672 60.6051 42.112 63.4925 47.114 63.4925C52.1159 63.4925 56.5567 60.6051 59.3456 56.1413ZM36.0473 56.0489L47.114 37.8625L58.1823 56.0489H36.0473ZM93.1332 36.115L80.9015 56.1413C83.6905 60.6051 88.1312 63.4925 93.1332 63.4925C98.1351 63.4925 102.576 60.6051 105.365 56.1413L93.1332 36.115ZM82.0648 56.0489L93.1332 37.8625L104.2 56.0489H82.0648Z" fill="white"/>
<path d="M47.1152 36.6975L93.1327 36.6975" stroke="white" strokeWidth="1.45625"/>
<path d="M68.8772 37.6559C68.9234 37.1705 69.331 36.7998 69.8186 36.7998V36.7998C70.3176 36.7998 70.7307 37.1876 70.7623 37.6856L72.3881 63.3282C72.4313 64.0085 72.6244 64.6708 72.9536 65.2676V65.2676C73.7288 66.673 75.1779 67.5754 76.7811 67.6512L87.3282 68.15C87.5062 68.1585 87.6799 68.207 87.8364 68.2922V68.2922C88.0602 68.4139 88.2386 68.6047 88.345 68.8361L88.3568 68.8617C88.4329 69.0274 88.4724 69.2077 88.4724 69.3901V70.4204C88.4724 70.6028 88.4329 70.783 88.3568 70.9487L88.338 70.9895C88.2362 71.2111 88.0654 71.3938 87.8511 71.5103V71.5103C87.6854 71.6004 87.4998 71.6476 87.3112 71.6476H52.3536C52.1649 71.6476 51.9793 71.6004 51.8136 71.5103V71.5103C51.5994 71.3938 51.4286 71.2111 51.3267 70.9895L51.308 70.9487C51.2318 70.783 51.1924 70.6028 51.1924 70.4204V69.3901C51.1924 69.2077 51.2318 69.0274 51.308 68.8617L51.3196 68.8365C51.4261 68.6048 51.6047 68.4138 51.8287 68.292V68.292C51.985 68.207 52.1584 68.1584 52.3361 68.1498L62.3523 67.6656C64.0618 67.5829 65.5561 66.4857 66.1469 64.8793V64.8793C66.2733 64.5354 66.3549 64.1766 66.3896 63.8117L68.8772 37.6559Z" fill="white"/>
</svg>
