<svg width="356" height="150" viewBox="0 0 356 150" fill="none" xmlns="http://www.w3.org/2000/svg">
<path d="M184.111 74.9399H178.735V53.6279H178.495L168.079 71.1959H167.215L156.799 53.6279H156.559V74.9399H151.423V43.5959H156.943L167.839 62.0759H167.935L178.831 43.5959H184.111V74.9399ZM224.538 65.8199L228.138 69.3719C224.778 72.7319 219.498 75.8999 212.682 75.8999C202.362 75.8999 195.546 68.4599 195.546 59.2439C195.546 50.1719 202.41 42.6359 212.442 42.6359C218.154 42.6359 223.626 44.8919 227.13 48.1559L223.482 51.7559C220.698 49.1159 216.378 47.4359 212.538 47.4359C205.674 47.4359 201.21 52.8119 201.21 59.2919C201.21 65.8199 205.77 71.0999 212.778 71.0999C217.674 71.0999 221.85 68.6999 224.538 65.8199ZM238.721 43.5959H244.097V70.1399H263.345V74.9399H238.721V43.5959ZM268.887 74.9399L283.431 43.5959H288.327L302.871 74.9399H296.967L293.175 66.4919H278.247L274.503 74.9399H268.887ZM285.591 50.0279L280.167 62.1719H291.255L285.879 50.0279H285.591ZM318.177 74.9399H312.801V43.5959H330.081C334.497 43.5959 337.233 44.8439 339.153 46.9079C340.833 48.7319 341.649 50.8919 341.649 53.1959C341.649 55.8839 340.545 58.2359 338.769 59.9639C336.897 61.7399 334.257 62.8919 330.081 62.8919H318.177V74.9399ZM330.081 48.3959H318.177V58.0919H330.081C331.425 58.0919 333.297 57.9959 334.833 56.5559C335.745 55.6919 336.273 54.4919 336.273 53.2439C336.273 51.9959 335.793 50.9399 334.977 50.0759C333.537 48.5399 331.617 48.3959 330.081 48.3959Z" fill="white"/>
<path d="M88.9947 18.6749C89.5515 19.3918 90.9393 21.1452 91.9703 22.5812C94.2353 25.6101 99.0441 30.2773 99.5212 29.9609C100.123 29.6437 97.8261 24.188 96.4333 22.5134C94.8472 20.6006 92.7776 19.2024 90.0335 18.1606L87.8809 17.3582L88.9947 18.6749Z" fill="white"/>
<path d="M27.6631 19.4597C25.2693 20.6857 22.8716 22.8682 21.8709 24.7739C21.1492 26.2038 19.7833 30.3764 19.9814 30.5764C20.3 30.895 25.6542 25.619 27.0547 23.6344C27.935 22.4044 29.1743 20.7358 29.8945 19.903C30.934 18.6733 31.0148 18.4347 30.3759 18.433C29.9763 18.4319 28.7797 18.9063 27.6631 19.4597Z" fill="white"/>
<path d="M98.9044 23.3146C99.7381 24.2711 101.635 29.7257 102.541 33.8652L102.776 35.0195L101.744 33.9824C101.187 33.4232 99.6769 32.1865 98.4423 31.2683C97.2113 30.3502 95.3812 28.8726 94.4277 27.997C92.8775 26.5214 92.7186 26.4409 92.9949 27.3553C93.6649 29.9822 95.0523 31.8956 97.9185 34.2502C99.5874 35.6067 101.773 37.5617 102.768 38.5987C103.8 39.6752 104.756 40.5138 104.875 40.5141C104.995 40.5144 105.12 38.2875 105.127 35.5419C105.139 31.1661 105.022 30.331 104.188 28.4203C103.162 26.0707 100.618 23.2787 99.2239 22.8784C98.3869 22.6778 98.3473 22.7171 98.9044 23.3146Z" fill="white"/>
<path d="M17.8037 25.4795C15.1266 28.336 14.7224 30.0057 14.9793 38.0008L15.0509 41.1037L17.9274 38.4066C24.0798 32.617 25.2776 31.2671 26.1597 29.4005C26.6818 28.3677 26.9633 27.3737 26.8428 27.2539C26.7236 27.0936 26.0451 27.5694 25.3253 28.284C24.6055 28.9592 23.0488 30.3462 21.8101 31.3376C20.5333 32.2884 18.8539 33.8745 18.0546 34.7871C17.2145 35.739 16.6965 36.1365 16.8568 35.6987C17.0172 35.262 17.5009 33.3931 17.9439 31.5253C18.3869 29.6575 19.1907 27.1147 19.7123 25.843C20.9179 22.9431 20.2817 22.8207 17.8037 25.4795Z" fill="white"/>
<path d="M106.553 38.0935C106.38 42.0306 106.37 45.7304 106.491 46.3661L106.686 47.4808L106.25 46.486C105.971 45.9287 105.458 44.7725 105.023 43.8565C104.587 42.8604 102.918 40.9868 100.614 38.9132C98.6279 37.077 97.1968 35.8406 97.4736 36.1196C97.7132 36.4391 97.9493 37.1563 97.9478 37.7117C97.9447 38.8653 100.284 42.9693 102.943 46.5164C103.898 47.7515 105.207 49.8247 105.84 51.139C106.99 53.4482 106.99 53.4482 107.271 52.2559C107.435 51.5804 107.913 49.991 108.316 48.6784C109.762 44.3866 109.964 43.1546 109.815 39.5344C109.703 36.9473 109.39 35.3963 108.756 33.8826C107.055 29.9811 106.892 30.2983 106.553 38.0935Z" fill="white"/>
<path d="M11.686 33.2976C10.3633 36.1197 9.71631 39.4991 10.027 42.2433C10.1829 43.4368 10.9715 46.463 11.8021 48.971L13.3438 53.5495L14.267 51.5634C14.7473 50.4911 16.0286 48.3866 17.1095 46.917C19.5884 43.5032 21.6724 39.6907 22.0349 37.942L22.3174 36.5908L19.8804 38.6921C17.0438 41.19 15.2041 43.6106 14.2016 46.1936L13.5193 48.0214L13.4918 43.6453C13.4578 41.2196 13.307 38.1952 13.1121 36.8426C12.9159 35.5295 12.8814 33.6998 13.0837 32.7866C13.4873 30.4803 12.9279 30.7165 11.686 33.2976Z" fill="white"/>
<path d="M111.475 44.909C111.471 46.2203 110.588 49.0831 108.902 53.255C108.137 55.122 107.297 57.4272 107.017 58.3807L106.493 60.1289L106.021 57.5431C105.748 56.1104 105.233 54.3187 104.878 53.6023C103.766 51.4901 101.031 46.8689 100.751 46.6687C99.9551 46.1888 101.96 56.2576 103.343 59.8014C103.662 60.6789 104.056 62.7473 104.209 64.3792L104.441 67.3633L107.479 63.2739C111.52 57.8353 112.404 55.332 112.419 49.6829C112.426 47.2572 112.233 45.1487 111.954 44.7097C111.517 43.9548 111.517 43.9548 111.475 44.909Z" fill="white"/>
<path d="M8.02522 45.6189C7.42338 46.9298 7.68241 54.1299 8.39354 56.5981C9.06464 58.8274 9.8579 60.1421 13.5923 64.8879L15.5776 67.3978L15.8616 65.0529C15.986 63.7801 16.7514 60.4023 17.5166 57.5392C18.3225 54.7157 19.0492 51.0594 19.2128 49.4285L19.4603 46.4457L18.2195 48.6315C14.8961 54.5486 14.1731 56.4169 14.1262 59.1208C14.0828 60.5526 13.9195 61.6271 13.7212 61.5059C13.5624 61.386 13.4033 60.9473 13.4045 60.5102C13.4069 59.6371 11.9071 54.6204 11.4302 53.9814C10.8749 53.1844 8.97717 47.9684 8.70145 46.4162C8.42517 45.0647 8.34654 44.9438 8.02522 45.6189Z" fill="white"/>
<path d="M18.4167 63.3482C17.6458 68.2784 17.7577 71.102 18.8274 73.6905C19.4597 75.2436 19.1815 75.0446 17.4354 72.5725C16.7609 71.6152 14.7347 69.2235 12.9071 67.2694C11.0796 65.276 9.13381 62.8045 8.53832 61.808C7.46774 59.9778 7.42837 59.9371 7.42509 61.1302C7.41637 64.3117 9.03837 68.3743 11.5405 71.2844C13.6048 73.755 22.5942 80.1033 23.1939 79.5508C23.3139 79.4305 23.1171 78.754 22.7589 78.0771C22.2045 76.9219 21.8915 75.0126 20.9565 66.9356C20.4501 62.6791 19.7423 59.0179 19.4247 58.7782C19.267 58.6977 18.8222 60.7638 18.4167 63.3482Z" fill="white"/>
<path d="M100.359 59.4767C99.8776 60.3114 99.2266 64.7236 98.6554 70.5691C98.2438 74.9426 98.0423 76.0169 97.4003 77.5665C97.1606 78.1618 97.0392 78.798 97.078 79.0358C97.3537 79.7543 104.341 74.9581 107.098 72.2225C110.533 68.7709 112.216 65.4746 112.503 61.7361L112.712 59.0317L111.671 61.1761C111.07 62.3281 109.391 64.5508 107.911 66.1387C106.39 67.6859 104.553 69.7481 103.795 70.7397C103.072 71.7325 102.313 72.6859 102.114 72.923C101.954 73.122 101.555 73.6774 101.194 74.1135C100.673 74.8287 100.673 74.7486 101.196 73.5164C102.6 70.0211 102.683 68.5487 101.861 63.6548C101.389 61.1073 100.957 58.9588 100.876 58.8786C100.798 58.8007 100.558 59.0795 100.359 59.4767Z" fill="white"/>
<path d="M94.9864 71.3955C93.9846 72.8629 92.784 75.247 92.3015 76.6788C91.7807 78.1081 91.219 79.6185 91.0563 80.0551C90.8565 80.4929 90.4164 81.7241 90.0163 82.7573C89.6533 83.8287 88.8126 85.4184 88.1725 86.292C87.5324 87.1657 87.0935 87.9598 87.1698 88.0795C87.647 88.5573 96.1798 86.474 98.4155 85.3265C100.931 84.0615 104.284 81.3263 105.925 79.1023C107.285 77.2776 108.607 74.8545 108.609 74.0997C108.609 73.9791 107.57 74.8122 106.29 75.9623C104.894 77.2292 102.499 78.8146 100.383 79.843C98.4266 80.8337 95.8733 82.1774 94.7574 82.9303C93.5984 83.6449 92.6411 84.157 92.6413 84.0782C92.6416 83.9587 93.2433 82.6885 94.0024 81.1786C94.8457 79.5126 95.5672 77.3255 95.8522 75.4942C96.0947 73.8659 96.5002 71.7185 96.7014 70.7649C96.9422 69.8101 97.027 68.9767 96.9448 68.8547C96.8254 68.7744 95.9452 69.9268 94.9864 71.3955Z" fill="white"/>
<path d="M23.5354 71.5172C24.1192 76.77 25.2644 80.6318 26.9306 82.9819C27.8042 84.2168 28.7178 85.2536 28.9571 85.2542C29.1964 85.2549 29.3146 85.3352 29.1958 85.4543C29.0759 85.5746 27.7629 84.8532 26.251 83.8555C24.7403 82.8171 21.7179 81.1368 19.4883 80.0583C16.5836 78.6578 14.9129 77.5389 13.363 75.9845C11.6937 74.3104 11.3354 74.0693 11.5726 74.8654C12.1652 76.8949 15.4994 81.3598 17.6472 83.0353C19.6743 84.6722 22.0229 85.9912 23.8935 86.634C25.1665 87.0734 32.655 88.4065 32.8135 88.2099C32.8939 88.1289 32.5382 87.3731 32.0211 86.5751C30.9501 84.9014 30.0001 82.7515 28.0613 77.6956C26.8356 74.4307 25.6452 72.199 24.0573 70.1261L23.2632 69.1303L23.5354 71.5172Z" fill="white"/>
<path d="M84.4712 83.8952C82.1139 86.1556 79.9165 88.1381 79.5558 88.3377C79.158 88.5337 78.6807 88.9301 78.3989 89.1682C78.1601 89.4076 76.9226 89.9608 75.6845 90.3145C74.4498 90.71 73.5322 91.1052 73.6121 91.1842C73.6921 91.2633 74.5697 91.5057 75.5227 91.7066C76.4806 91.9075 78.8696 92.4706 80.8199 92.9143C87.2326 94.4033 91.3381 93.8592 95.8091 90.9262C98.1644 89.3825 100.481 87.2008 100.125 86.8427C100.004 86.7218 99.1291 87.0777 98.1693 87.5922C95.7751 88.8982 94.0212 89.2923 88.6405 89.7552C86.1296 89.986 83.3386 90.2567 82.4624 90.4131L80.868 90.6476L82.7426 89.4584C84.779 88.1502 86.8186 85.6896 87.7389 83.4253C88.021 82.6712 88.5012 81.6383 88.743 81.1624C89.7044 79.2171 88.5453 79.9675 84.4712 83.8952Z" fill="white"/>
<path d="M30.8838 80.3289C30.8834 80.4865 31.6352 82.0806 32.5469 83.834C34.3308 87.3395 36.3567 89.453 38.745 90.2956C40.5368 90.9359 40.2975 90.9352 36.4341 90.4481C34.8004 90.2047 31.4943 89.8386 29.1437 89.6327C25.957 89.3456 24.2446 88.9827 22.6123 88.2222C21.3791 87.6622 20.3045 87.2616 20.2241 87.3414C19.7849 87.8155 23.9193 91.1303 26.4668 92.3699C29.2534 93.6913 29.7305 93.8108 33.2375 93.7822C36.0672 93.79 38.1391 93.5162 41.4102 92.6879C43.842 92.058 45.9556 91.4297 46.1163 91.2701C46.3154 91.1118 45.6785 90.7911 44.7232 90.5508C42.4132 89.9461 40.505 88.5495 35.6954 84.0815C31.7606 80.4089 30.8856 79.6923 30.8838 80.3289Z" fill="white"/>
<path d="M50.1796 91.8366C49.1032 92.1119 46.1114 93.1786 43.5972 94.2036C37.5337 96.6962 33.2684 97.0404 29.0493 95.3986C27.4166 94.7575 30.6392 97.2327 32.8271 98.2729C34.6971 99.1941 35.5343 99.3135 38.8019 99.3224C43.1859 99.3344 44.5811 98.8605 49.4106 95.6527C52.924 93.2749 54.6791 92.4843 56.3542 92.4889C58.107 92.4937 57.8267 93.0507 55.3931 94.316C52.2802 95.9377 46.7689 100.379 46.7665 101.252C46.7654 101.649 47.0836 102.129 47.4407 102.369C47.9987 102.649 48.7166 102.212 51.1541 99.9141C54.6295 96.5807 58.8228 93.69 60.1378 93.6936C61.4132 93.6971 65.5895 96.5725 68.9285 99.7646C70.4786 101.282 71.9099 102.477 72.1086 102.477C72.3072 102.478 72.7867 102.122 73.1852 101.686C73.825 100.932 73.7857 100.854 72.7535 99.8551C71.2033 98.3806 66.4313 95.0258 64.4407 94.0255C63.008 93.3049 62.8088 93.1049 63.3672 92.79C64.5655 92.1161 66.7554 92.8781 70.4151 95.1956C72.4421 96.4731 74.5121 97.7543 75.069 97.9923C79.5668 100.113 85.4239 99.6127 89.7762 96.7607C91.8127 95.4143 91.8946 94.778 89.9804 95.5681C87.0277 96.7926 81.5277 96.2603 77.271 94.3401C71.4202 91.699 68.4319 91.053 64.1675 91.519C60.7386 91.8679 59.9035 91.8656 55.561 91.5754C53.3288 91.4081 51.4955 91.4819 50.1796 91.8366Z" fill="white"/>
<path d="M48.3453 56.0395L36.1134 36.0489L23.8821 56.0392C26.6719 60.495 31.1119 63.3773 36.1138 63.3774C41.1158 63.3774 45.5565 60.4953 48.3453 56.0395ZM25.0471 55.947L36.1135 37.7933L47.182 55.9473L25.0471 55.947ZM82.1325 36.0496L69.9011 56.0399C72.6902 60.4957 77.1309 63.378 82.1329 63.378C87.1348 63.3781 91.5755 60.4959 94.3643 56.0402L82.1325 36.0496ZM71.0644 55.9477L82.1325 37.794L93.1994 55.948L71.0644 55.9477Z" fill="white"/>
<path d="M36.1143 36.631L82.1318 36.6312" stroke="white" stroke-width="1.45625"/>
<path d="M57.877 37.589C57.9232 37.1037 58.3309 36.733 58.8185 36.733C59.3175 36.733 59.7307 37.1208 59.7623 37.6188L61.3882 63.2112C61.4314 63.8916 61.6248 64.554 61.9546 65.1507C62.7294 66.5528 64.1759 67.4528 65.7761 67.5283L76.3287 68.0266C76.5065 68.035 76.68 68.0834 76.8363 68.1683C77.0603 68.2899 77.2389 68.4806 77.3454 68.7121L77.3568 68.7367C77.433 68.9023 77.4725 69.0824 77.4725 69.2647L77.4725 70.2925C77.4725 70.4748 77.4331 70.6549 77.3568 70.8205L77.3385 70.8603C77.2364 71.0819 77.0654 71.2645 76.8511 71.3809C76.6855 71.4707 76.5001 71.5178 76.3118 71.5178L41.3535 71.5175C41.1651 71.5175 40.9798 71.4704 40.8142 71.3805C40.5998 71.2641 40.4288 71.0815 40.3268 70.8599L40.3085 70.8201C40.2322 70.6545 40.1927 70.4744 40.1927 70.2921L40.1927 69.2643C40.1927 69.082 40.2322 68.9019 40.3084 68.7364L40.3196 68.712C40.4263 68.4804 40.6051 68.2895 40.8292 68.1678C40.9854 68.083 41.1586 68.0345 41.3361 68.026L51.358 67.5425C53.0644 67.4601 54.5562 66.3656 55.1467 64.7625C55.2734 64.4186 55.3552 64.0597 55.3899 63.6948L57.877 37.589Z" fill="white"/>
</svg>
