<?xml version="1.0" standalone="no"?>
<!DOCTYPE svg PUBLIC "-//W3C//DTD SVG 20010904//EN"
 "http://www.w3.org/TR/2001/REC-SVG-20010904/DTD/svg10.dtd">
<svg version="1.0" xmlns="http://www.w3.org/2000/svg"
 width="512.000000pt" height="512.000000pt" viewBox="0 0 512.000000 512.000000"
 preserveAspectRatio="xMidYMid meet">

<g transform="translate(0.000000,512.000000) scale(0.100000,-0.100000)"
fill="#000000" stroke="none">
<path d="M1776 4994 c-14 -14 -16 -90 -16 -690 l0 -674 -298 0 c-253 0 -301
-2 -320 -16 -27 -18 -29 -55 -4 -77 16 -15 54 -17 320 -17 l302 0 0 -1655 0
-1655 -772 2 -773 3 -3 1653 -2 1652 384 0 c336 0 387 2 400 16 14 13 16 52
16 269 l0 253 39 58 c103 155 117 351 36 519 -41 85 -108 165 -139 165 -15 0
-127 -106 -380 -359 -398 -399 -380 -373 -307 -438 152 -135 397 -165 583 -72
32 16 60 29 63 29 3 0 5 -74 5 -165 l0 -165 -378 0 c-326 0 -381 -2 -400 -16
l-22 -15 0 -1733 c0 -1334 3 -1735 12 -1744 9 -9 250 -12 1024 -12 l1013 0 15
22 c14 20 16 92 16 585 l0 563 265 0 265 0 0 -535 0 -535 -200 0 -200 0 -16
-25 c-15 -23 -15 -27 0 -50 l16 -25 1286 0 c1423 0 1328 -4 1377 64 l22 31 3
583 c3 646 4 628 -62 675 -30 21 -41 22 -272 25 l-241 3 -5 87 c-7 117 -37
182 -83 182 -12 0 -30 -9 -40 -20 -18 -20 -18 -23 -2 -68 10 -27 17 -76 17
-114 l0 -68 -321 0 -321 0 3 84 c4 91 17 118 73 160 25 19 45 21 232 26 167 4
207 8 214 20 15 24 13 3203 -2 3218 -9 9 -291 12 -1209 12 -1075 0 -1199 -2
-1213 -16z m2332 -1605 l2 -1517 -167 -4 c-192 -4 -231 -15 -298 -90 -51 -56
-67 -99 -73 -200 l-5 -87 -241 -3 c-231 -3 -242 -4 -272 -25 -66 -47 -64 -30
-64 -672 l0 -581 -80 0 -80 0 0 570 c0 557 0 570 -20 590 -19 19 -33 20 -353
20 -285 0 -336 -2 -355 -16 l-22 -15 0 -575 0 -574 -105 0 -105 0 0 2350 0
2350 1118 -2 1117 -3 3 -1516z m-3111 1184 c38 -82 43 -196 15 -290 -76 -248
-352 -370 -585 -259 -29 13 -59 29 -67 35 -12 9 41 66 284 310 337 337 302
317 353 204z m3893 -3203 c19 -19 20 -33 20 -240 l0 -220 -135 0 -135 0 0 64
c0 90 -10 96 -160 96 -150 0 -160 -6 -160 -96 l0 -64 -320 0 -320 0 0 64 c0
90 -10 96 -160 96 -150 0 -160 -6 -160 -96 l0 -64 -135 0 -135 0 0 220 c0 207
1 221 20 240 20 20 33 20 890 20 857 0 870 0 890 -20z m-1320 -490 l0 -80 -50
0 -50 0 0 80 0 80 50 0 50 0 0 -80z m960 0 l0 -80 -50 0 -50 0 0 80 0 80 50 0
50 0 0 -80z m-1170 -119 c0 -47 26 -71 77 -71 l33 0 0 -65 c0 -58 3 -66 25
-81 23 -15 27 -15 50 0 22 15 25 23 25 81 l0 65 33 0 c51 0 77 24 77 71 l0 39
320 0 320 0 0 -39 c0 -47 26 -71 77 -71 l33 0 0 -65 c0 -58 3 -66 25 -81 23
-15 27 -15 50 0 22 15 25 23 25 81 l0 65 33 0 c51 0 77 24 77 71 l0 39 135 0
135 0 0 -133 0 -134 -42 -13 c-135 -40 -229 -134 -269 -267 l-12 -43 -588 0
-588 0 -12 42 c-35 131 -132 229 -266 269 l-43 12 0 134 0 133 135 0 135 0 0
-39z m-216 -356 c52 -22 111 -78 135 -130 12 -25 21 -49 21 -55 0 -6 -34 -10
-85 -10 -116 0 -125 9 -125 125 0 47 4 85 9 85 5 0 25 -7 45 -15z m1766 -70
c0 -116 -9 -125 -125 -125 -51 0 -85 4 -85 10 0 24 43 99 73 128 32 32 101 71
125 72 9 0 12 -23 12 -85z"/>
<path d="M2052 4734 c-22 -15 -22 -18 -22 -254 0 -236 0 -239 22 -254 19 -13
60 -16 243 -16 183 0 224 3 243 16 22 15 22 18 22 254 0 236 0 239 -22 254
-19 13 -60 16 -243 16 -183 0 -224 -3 -243 -16z m398 -254 l0 -160 -160 0
-160 0 0 160 0 160 160 0 160 0 0 -160z"/>
<path d="M2742 4734 c-22 -15 -22 -18 -22 -254 0 -236 0 -239 22 -254 19 -13
60 -16 243 -16 183 0 224 3 243 16 22 15 22 18 22 254 0 236 0 239 -22 254
-19 13 -60 16 -243 16 -183 0 -224 -3 -243 -16z m408 -254 l0 -160 -160 0
-160 0 0 160 0 160 160 0 160 0 0 -160z"/>
<path d="M3430 4730 c-19 -19 -20 -33 -20 -250 0 -217 1 -231 20 -250 19 -19
33 -20 250 -20 217 0 231 1 250 20 19 19 20 33 20 250 0 217 -1 231 -20 250
-19 19 -33 20 -250 20 -217 0 -231 -1 -250 -20z m410 -250 l0 -160 -160 0
-160 0 0 160 0 160 160 0 160 0 0 -160z"/>
<path d="M2042 4038 c-9 -9 -12 -78 -12 -249 0 -203 2 -240 16 -253 13 -14 50
-16 248 -16 213 0 234 2 249 18 15 16 17 49 17 250 0 196 -2 233 -16 246 -13
14 -50 16 -253 16 -171 0 -240 -3 -249 -12z m408 -248 l0 -160 -160 0 -160 0
0 153 c0 85 3 157 7 160 3 4 75 7 160 7 l153 0 0 -160z"/>
<path d="M2736 4034 c-14 -13 -16 -50 -16 -248 0 -213 2 -234 18 -249 16 -15
49 -17 250 -17 196 0 233 2 246 16 14 13 16 50 16 253 0 171 -3 240 -12 249
-9 9 -78 12 -249 12 -203 0 -240 -2 -253 -16z m412 -246 l3 -158 -161 0 -160
0 0 160 0 161 158 -3 157 -3 3 -157z"/>
<path d="M3426 4028 c-13 -19 -16 -60 -16 -243 0 -183 3 -224 16 -243 15 -22
18 -22 254 -22 236 0 239 0 254 22 13 19 16 60 16 243 0 183 -3 224 -16 243
-15 22 -18 22 -254 22 -236 0 -239 0 -254 -22z m414 -238 l0 -160 -160 0 -160
0 0 160 0 160 160 0 160 0 0 -160z"/>
<path d="M2046 3344 c-14 -13 -16 -50 -16 -253 0 -171 3 -240 12 -249 9 -9 78
-12 249 -12 203 0 240 2 253 16 14 13 16 50 16 248 0 213 -2 234 -18 249 -16
15 -49 17 -250 17 -196 0 -233 -2 -246 -16z m404 -254 l0 -161 -157 3 -158 3
-3 158 -3 157 161 0 160 0 0 -160z"/>
<path d="M2737 3342 c-15 -16 -17 -49 -17 -250 0 -196 2 -233 16 -246 13 -14
50 -16 253 -16 171 0 240 3 249 12 9 9 12 78 12 249 0 203 -2 240 -16 253 -13
14 -50 16 -248 16 -213 0 -234 -2 -249 -18z m411 -249 l-3 -158 -157 -3 -158
-3 0 161 0 160 160 0 161 0 -3 -157z"/>
<path d="M3426 3338 c-13 -19 -16 -60 -16 -243 0 -183 3 -224 16 -243 15 -22
18 -22 254 -22 236 0 239 0 254 22 13 19 16 60 16 243 0 183 -3 224 -16 243
-15 22 -18 22 -254 22 -236 0 -239 0 -254 -22z m414 -248 l0 -160 -160 0 -160
0 0 160 0 160 160 0 160 0 0 -160z"/>
<path d="M2052 2654 c-22 -15 -22 -18 -22 -254 0 -236 0 -239 22 -254 19 -13
60 -16 243 -16 183 0 224 3 243 16 22 15 22 18 22 254 0 236 0 239 -22 254
-19 13 -60 16 -243 16 -183 0 -224 -3 -243 -16z m398 -254 l0 -160 -160 0
-160 0 0 160 0 160 160 0 160 0 0 -160z"/>
<path d="M2742 2654 c-22 -15 -22 -18 -22 -254 0 -236 0 -239 22 -254 19 -13
60 -16 243 -16 183 0 224 3 243 16 22 15 22 18 22 254 0 236 0 239 -22 254
-19 13 -60 16 -243 16 -183 0 -224 -3 -243 -16z m408 -254 l0 -160 -160 0
-160 0 0 160 0 160 160 0 160 0 0 -160z"/>
<path d="M3430 2650 c-19 -19 -20 -33 -20 -250 0 -217 1 -231 20 -250 19 -19
33 -20 250 -20 217 0 231 1 250 20 19 19 20 33 20 250 0 217 -1 231 -20 250
-19 19 -33 20 -250 20 -217 0 -231 -1 -250 -20z m410 -250 l0 -160 -160 0
-160 0 0 160 0 160 160 0 160 0 0 -160z"/>
<path d="M2206 1584 c-24 -24 -20 -61 9 -80 23 -15 27 -15 50 0 42 28 24 96
-25 96 -10 0 -26 -7 -34 -16z"/>
<path d="M2417 1582 c-24 -27 -21 -59 8 -78 51 -33 104 21 71 71 -20 30 -56
33 -79 7z"/>
<path d="M2624 1575 c-33 -50 20 -104 71 -71 30 20 33 56 7 79 -27 24 -59 21
-78 -8z"/>
<path d="M386 3338 c-24 -33 -24 -453 0 -486 15 -22 18 -22 254 -22 236 0 239
0 254 22 24 33 24 453 0 486 -15 22 -18 22 -254 22 -236 0 -239 0 -254 -22z
m414 -248 l0 -160 -160 0 -160 0 0 160 0 160 160 0 160 0 0 -160z"/>
<path d="M1086 3344 c-14 -13 -16 -50 -16 -253 0 -171 3 -240 12 -249 9 -9 78
-12 249 -12 203 0 240 2 253 16 14 13 16 50 16 248 0 213 -2 234 -18 249 -16
15 -49 17 -250 17 -196 0 -233 -2 -246 -16z m404 -254 l0 -161 -157 3 -158 3
-3 158 -3 157 161 0 160 0 0 -160z"/>
<path d="M390 2650 c-19 -19 -20 -33 -20 -250 0 -217 1 -231 20 -250 19 -19
33 -20 250 -20 217 0 231 1 250 20 19 19 20 33 20 250 0 217 -1 231 -20 250
-19 19 -33 20 -250 20 -217 0 -231 -1 -250 -20z m410 -250 l0 -160 -160 0
-160 0 0 160 0 160 160 0 160 0 0 -160z"/>
<path d="M1092 2654 c-22 -15 -22 -18 -22 -254 0 -236 0 -239 22 -254 19 -13
60 -16 243 -16 183 0 224 3 243 16 22 15 22 18 22 254 0 236 0 239 -22 254
-19 13 -60 16 -243 16 -183 0 -224 -3 -243 -16z m398 -254 l0 -160 -160 0
-160 0 0 160 0 160 160 0 160 0 0 -160z"/>
<path d="M386 1948 c-24 -33 -24 -453 0 -486 15 -22 18 -22 254 -22 236 0 239
0 254 22 24 33 24 453 0 486 -15 22 -18 22 -254 22 -236 0 -239 0 -254 -22z
m414 -238 l0 -160 -160 0 -160 0 0 160 0 160 160 0 160 0 0 -160z"/>
<path d="M1082 1958 c-9 -9 -12 -78 -12 -249 0 -203 2 -240 16 -253 13 -14 50
-16 248 -16 213 0 234 2 249 18 15 16 17 49 17 250 0 196 -2 233 -16 246 -13
14 -50 16 -253 16 -171 0 -240 -3 -249 -12z m408 -248 l0 -160 -160 0 -160 0
0 153 c0 85 3 157 7 160 3 4 75 7 160 7 l153 0 0 -160z"/>
</g>
</svg>
